<?xml version="1.0" encoding="UTF-8"?><svg id="Calque_2" xmlns="http://www.w3.org/2000/svg" viewBox="0 0 530.19 534.77"><defs><style>.cls-1{fill:none;stroke:#fff;stroke-miterlimit:10;stroke-width:.5px;}</style></defs><g id="Calque_1-2"><path class="cls-1" d="m368.91,482.82c87.65-15.23,159.78-81.65,156.21-175.04-.92-23.94-6.67-47.31-15.53-69.5,17.97-38.24,18.4-80.63-21.21-104.96-35.74-21.95-82.85-22.45-123.28-18.33-83.5,8.52-166.68,41.75-235.51,89.34-34.51,23.86-68.1,52.74-90.3,88.8-20.91,33.97-30.96,78.65,2.43,108.4,31.47,28.04,80.69,30.61,120.62,28.19,41.01-2.49,81.57-12.02,120.32-25.4,78.18-27.01,159.63-72.25,210.08-139.5,6.33-8.44,11.71-17.33,16.84-26.54,16.45,41.1,21.45,87.01,7.11,129.51-14.55,43.14-47.58,77.13-88.35,96.58-20.73,9.88-42.91,16.03-65.59,19.42h0c2.05-.32,4.1-.64,6.15-.96Z"/><polygon class="cls-1" points="362.76 483.78 362.76 483.78 362.76 483.78 362.76 483.78 362.76 483.78 362.76 483.78 362.76 483.78 362.76 483.78 362.76 483.78 362.76 483.78 362.76 483.78 362.76 483.78 362.76 483.78 362.76 483.78 362.76 483.78 362.76 483.78 362.76 483.78 362.76 483.78 362.76 483.78 362.76 483.78 362.76 483.78 362.76 483.78 362.76 483.78 362.76 483.78 362.76 483.78 362.76 483.78 362.76 483.78 362.76 483.78 362.76 483.78 362.76 483.78 362.76 483.78 362.76 483.78 362.76 483.78 362.76 483.78 362.76 483.78 362.76 483.78 362.76 483.78 362.76 483.78 362.76 483.78 362.76 483.78 362.76 483.78 362.76 483.78 362.76 483.78 362.76 483.78 362.76 483.78 362.76 483.78 362.76 483.78 362.76 483.78 362.76 483.78 362.76 483.78 362.76 483.78 362.76 483.78 362.76 483.78 362.76 483.78 362.76 483.78 362.76 483.78 362.76 483.78 362.76 483.78 362.76 483.78 362.76 483.78 362.76 483.78 362.76 483.78 362.76 483.78 362.76 483.78 362.76 483.78 362.76 483.78 362.76 483.78 362.76 483.78 362.76 483.78 362.76 483.78 362.76 483.78 362.76 483.78 362.76 483.78 362.76 483.78 362.76 483.78 362.76 483.78 362.76 483.78 362.76 483.78 362.76 483.78 362.76 483.78 362.76 483.78 362.76 483.78 362.76 483.78 362.76 483.78 362.76 483.78 362.76 483.78 362.76 483.78 362.76 483.78 362.76 483.78 362.76 483.78 362.76 483.78 362.76 483.78 362.76 483.78 362.76 483.78 362.76 483.78 362.76 483.78 362.76 483.78 362.76 483.78 362.76 483.78 362.76 483.78 362.76 483.78 362.76 483.78 362.76 483.78 362.76 483.78 362.76 483.78 175.05 50.38 175.05 50.38 175.05 50.38 175.05 50.38 175.05 50.38 175.05 50.38 175.05 50.38 175.05 50.38 175.05 50.38 175.05 50.38 175.05 50.38 175.05 50.38 175.05 50.38 175.05 50.38 175.05 50.38 175.05 50.38 175.05 50.38 175.05 50.38 175.05 50.38 175.05 50.38 175.05 50.38 175.05 50.38 175.05 50.38 175.05 50.38 175.05 50.38 175.05 50.38 175.05 50.38 175.05 50.38 175.05 50.38 175.05 50.38 175.05 50.38 175.05 50.38 175.05 50.38 175.05 50.38 175.05 50.38 175.05 50.38 175.05 50.38 175.05 50.38 175.05 50.38 175.05 50.38 175.05 50.38 175.05 50.38 175.05 50.38 175.05 50.38 175.05 50.38 175.05 50.38 175.05 50.38 175.05 50.38 175.05 50.38 175.05 50.38 175.05 50.38 175.05 50.38 175.05 50.38 175.05 50.38 175.05 50.38 175.05 50.38 175.05 50.38 175.05 50.38 175.05 50.38 175.05 50.38 175.05 50.38 175.05 50.38 175.05 50.38 175.05 50.38 175.05 50.38 175.05 50.38 175.05 50.38 175.05 50.38 175.05 50.38 175.05 50.38 175.05 50.38 175.05 50.38 175.05 50.38 175.05 50.38 175.05 50.38 175.05 50.38 175.05 50.38 175.05 50.38 175.05 50.38 175.05 50.38 175.05 50.38 175.05 50.38 175.05 50.38 175.05 50.38 175.05 50.38 175.05 50.38 175.05 50.38 175.05 50.38 175.05 50.38 175.05 50.38 175.05 50.38 175.05 50.38 175.05 50.38 175.05 50.38 175.05 50.38 175.05 50.38 175.05 50.38 175.05 50.38 175.05 50.38 175.05 50.38 175.05 50.38 175.05 50.38 175.05 50.38 175.05 50.38 175.05 50.38 362.76 483.78 362.76 483.78"/><path class="cls-1" d="m509.59,238.28c-20.22-48.86-55.1-90.31-97.27-121.84-43.29-32.37-94.24-54.85-147.53-64.12-29.69-5.16-59.86-5.86-89.74-1.93h0c53.3-7.01,107.46,1.24,157.25,21.18,49.9,19.99,95.65,51.34,130.9,92.05,19.31,22.3,35.11,47.4,46.39,74.67-41.09,73.89-120.56,123.16-196.83,154.62-72.09,29.74-168.35,55.81-244.13,24.89-41.59-16.97-58.31-55.63-42.83-97.62,14.48-39.27,46.36-71.31,78.43-96.98,65.87-52.71,147.81-89.21,230.83-103.97,63.18-11.23,209.06-11.55,185.13,90.79-2.32,9.93-6.28,19.07-10.6,28.26h0Z"/><path class="cls-1" d="m509.59,238.28h0l4.36-9.28h0l3.48-9.13h0l2.58-8.94h0l1.68-8.72h0l.76-8.47h0l-.15-8.19h0l-1.07-7.88h0l-1.98-7.53h0l-2.89-7.17h0l-3.78-6.77h0l-4.67-6.35h0l-5.53-5.91h0l-6.38-5.44h0l-7.21-4.95h0l-8-4.45h0l-8.77-3.93h0l-9.51-3.39h0l-10.22-2.84h0l-10.88-2.28h0l-11.51-1.72h0c-4.03-.38-8.06-.76-12.09-1.14h0l-12.63-.56h0c-4.38,0-8.75.01-13.13.02h0c-4.53.2-9.05.4-13.58.6h0l-13.97,1.18h0c-4.77.59-9.55,1.17-14.32,1.76h0l-14.61,2.33h0c-4.95.96-9.9,1.93-14.85,2.89h0c-5.01,1.15-10.02,2.29-15.03,3.44h0l-15.16,3.98h0l-15.24,4.5h0l-15.25,5.01h0l-15.21,5.5h0l-15.12,5.96h0l-14.97,6.41h0l-14.76,6.83h0l-14.5,7.23h0l-14.18,7.6h0l-13.82,7.94h0l-13.4,8.26h0l-12.93,8.54h0l-12.42,8.79h0l-11.86,9.01h0l-11.25,9.2h0l-10.61,9.35h0l-9.92,9.46h0l-9.2,9.55h0l-8.45,9.59h0l-7.66,9.6h0l-6.85,9.58h0l-6.01,9.52h0l-5.16,9.43h0l-4.28,9.3h0l-3.39,9.14h0l-2.48,8.94h0l-1.57,8.71h0l-.65,8.45h0l.27,8.16h0l1.18,7.84h0l2.1,7.49h0l3,7.12h0l3.89,6.71h0l4.77,6.29h0l5.63,5.84h0l6.47,5.37h0l7.29,4.88h0l8.08,4.38h0l8.83,3.85h0l9.56,3.32h0l10.25,2.77h0l10.9,2.21h0c3.84.55,7.68,1.1,11.52,1.65h0c4.03.36,8.06.72,12.09,1.08h0c4.2.17,8.41.34,12.61.51h0c4.36-.02,8.73-.05,13.09-.07h0c4.51-.21,9.02-.43,13.53-.64h0l13.91-1.22h0l14.25-1.78h0c4.84-.78,9.68-1.56,14.53-2.35h0l14.76-2.9h0c4.98-1.15,9.96-2.29,14.93-3.44h0c5.02-1.32,10.04-2.65,15.06-3.97h0l15.12-4.48h0l15.14-4.98h0l15.1-5.46h0l15-5.92h0l14.85-6.36h0l14.65-6.78h0l14.39-7.17h0l14.08-7.54h0l13.72-7.88h0l13.32-8.19h0l12.86-8.47h0l12.36-8.72h0l11.81-8.94h0l11.22-9.12h0l10.59-9.28h0l9.92-9.4h0l9.21-9.49h0l8.47-9.54h0l7.7-9.56h0l6.9-9.54h0l6.08-9.49h0l5.23-9.4h0Z"/><path class="cls-1" d="m519.02,360.3c12.07-25.6,16.8-55.28-5.23-77.08-22.51-22.28-59.09-26.41-89.17-25.93-77.41,1.24-156.26,31.7-219.61,75.12-40.06,27.46-121.95,96.81-82.73,153.03,17.62,25.26,52.27,32.08,81.01,33.62,38,2.03,76.53-5.32,112.71-16.46,70.7-21.78,146.48-61.53,190.8-122.74,4.54-6.27,8.46-12.8,12.23-19.56h0Z"/><path class="cls-1" d="m448.92,452.95c17.02-33.55-15.35-48.89-44.56-48.6-36.45.37-74,14.95-103.83,35.32-19.23,13.14-57.66,45.24-40.04,72.27,17.46,26.79,66.56,16.2,91.15,8.77,36.23-10.94,78.87-32.87,97.29-67.77h0Z"/><path class="cls-1" d="m289.13,57.5c18.01-36.18-15.27-54.72-47.5-55.05-42.07-.43-85.59,16.39-119.76,40.22-21.3,14.85-64.06,52.05-42.02,81.76,21.03,28.36,73.65,17.25,101.39,8.83,37.94-11.52,79.1-33.07,102.25-66.44,2.07-2.99,3.97-6.09,5.64-9.33h0Z"/><path class="cls-1" d="m423.92,125.5c13.8-29.55,16.79-63.57-11.82-85.51-27.59-21.15-67.1-23.31-100.42-21.22-74.66,4.69-149.89,34.2-211.3,76.27-30.13,20.64-59.33,45.81-78.61,77.21-16.23,26.43-25.77,61.65-2.96,87.4,23.37,26.38,64.62,30.74,97.67,30.04,37.78-.81,75.32-9.12,111.01-21.21,67.58-22.89,137.65-61.56,181.44-119.35,5.68-7.49,10.46-15.43,15-23.64h0Z"/><path class="cls-1" d="m426.54,321.59c15.25,35.45,29.36,75.94,25.36,115.19-2.48,24.31-14.69,47.04-40.15,52.46-16.29,3.47-33.51-.19-48.99-5.46-48.94-112.99-97.88-225.98-146.82-338.96-13.63-31.48-27.27-62.95-40.9-94.43,41.09,14.78,77.1,42.5,108.75,71.98,38.43,35.8,72.15,76.88,100.56,121.03,16.05,24.95,30.24,51.04,42.2,78.19h0Z"/><path class="cls-1" d="m296.42,393.47c16.69,38.53,32.65,81.93,58.07,115.76,2.49,3.32,5.19,7.41,9.37,8.48.18-.03.36-.06.53-.09.16-.08.32-.16.48-.24.14-.13.28-.26.42-.39,4.09-7.77.2-21.89-1.79-29.76-5.83-23.05-19.28-46.26-28.84-68.33-40.62-93.78-81.24-187.56-121.85-281.33-12.59-29.06-25.18-58.12-37.76-87.19,9.07,40.68,22.19,80.52,35.58,119.96,16.41,48.35,34.16,96.25,52.96,143.72,10.54,26.63,21.48,53.11,32.84,79.41h0Z"/><path class="cls-1" d="m157.09,424.32c16.02,36.63,38.71,74.02,73.46,95.64,27.24,16.95,59.84,19.93,88.49,4.49,17.72-9.54,32.12-24.44,43.72-40.68-47.58-109.86-95.17-219.72-142.75-329.58-14.99-34.6-29.98-69.21-44.97-103.81-26.78,38.71-40.51,85.19-47.2,131.38-7.61,52.49-6.05,106.6,3.92,158.66,5.51,28.77,13.86,56.93,25.33,83.89h0Z"/><path class="cls-1" d="m53.44,406.82c19.16,44.29,53.63,81.19,97.88,100.99,43.61,19.52,93.29,21.19,139.07,8.66,25.78-7.06,49.78-18.53,72.38-32.69-50.8-117.28-101.6-234.56-152.39-351.84-11.77-27.18-23.55-54.37-35.32-81.55-45.83,29.92-83.03,72.12-107.68,120.96-23.61,46.77-36.32,99.63-33.33,152.13,1.64,28.68,7.98,56.96,19.4,83.34h0Z"/><path class="cls-1" d="m17.08,342.97c20.73,47.08,56.66,85.36,100.65,111.67,45.88,27.44,99.35,41.67,152.71,42.29,31.33.36,62.3-4.34,92.33-13.14-47.14-108.84-94.29-217.68-141.43-326.53-15.43-35.62-30.86-71.25-46.29-106.87-49.63,15.58-95.25,43.01-128.15,83.84C17.44,170.77.03,216.64.25,263.76c.13,27.33,6.26,54.07,16.82,79.2h0Z"/><path class="cls-1" d="m61.79,257.11c20.99,48.3,54.18,91.33,92.68,126.97,38.05,35.23,82.51,64.79,131.27,82.89,24.81,9.21,50.58,15.21,77.02,16.81-47.14-108.84-94.29-217.68-141.43-326.53-15.43-35.62-30.86-71.25-46.29-106.87-37-2.05-76.32,6.3-103.08,33.56-25.43,25.9-33.35,63.1-30.36,98.34,2.2,25.85,9.78,51.14,20.18,74.83h0Z"/><path class="cls-1" d="m171.42,171.46c18.7,43.06,39.84,85.03,62.64,126.07,22.31,40.17,46.2,79.67,72.69,117.23,17.04,24.16,34.81,48.32,56.02,69.03-50.8-117.28-101.6-234.56-152.39-351.84-11.77-27.18-23.55-54.37-35.32-81.55-8.05-7.87-34.87-33.74-40.69-10.66-6.21,24.66,8.76,58.41,16.81,80.88,6.16,17.18,13.04,34.09,20.25,50.85h0Z"/><path class="cls-1" d="m313.71,119.67c21.04,48.76,35.74,100.39,45.78,152.48,9.34,48.42,14.87,98.11,12.83,147.46-.89,21.61-3.46,43.37-9.55,64.17-47.58-109.86-95.17-219.72-142.75-329.58-14.99-34.6-29.98-69.21-44.97-103.81,7.3-24.98,24.74-56.06,55.61-43.47,24.1,9.83,41.41,35.32,54.48,56.59,11,17.91,20.31,36.86,28.58,56.17h0Z"/><path class="cls-1" d="m440.02,111.22c20.81,48.43,27.44,102.07,23,154.4-4.49,52.9-20.01,105.48-46.83,151.41-14.45,24.74-32.23,47.44-53.42,66.75-53.45-123.4-106.9-246.8-160.34-370.2-9.12-21.07-18.25-42.13-27.37-63.2C206.94,21.51,247.34.61,291.1.25c40.19-.33,77.89,17.38,105.9,45.74,18.44,18.68,32.51,41.25,43.02,65.22h0Z"/><path class="cls-1" d="m513.36,156.82c19.45,45.6,21.23,97.42,8.26,145-13.63,49.99-42.59,95.12-80.67,130.06-23.25,21.33-49.73,38.39-78.19,51.89-48.94-112.99-97.88-225.98-146.82-338.96-13.63-31.48-27.27-62.95-40.9-94.43,49.71-22.29,104.4-32.45,158.68-25.02,49.09,6.72,96.53,27.58,132.3,62.26,20.18,19.57,36.56,43.2,47.33,69.2h0Z"/></g></svg>